<svg width="1429" height="2277" viewBox="0 0 1429 2277" fill="none" xmlns="http://www.w3.org/2000/svg">
<path d="M179.207 766.723C193.387 716.798 231.244 676.105 287.658 645.284C344.074 614.462 419.013 593.535 507.264 583.14C683.764 562.35 913.413 583.698 1154.36 652.132C1395.31 720.566 1601.9 823.116 1741.12 933.577C1810.73 988.808 1863.49 1046 1895.28 1101.88C1927.07 1157.75 1937.89 1212.27 1923.71 1262.19C1909.53 1312.12 1871.67 1352.81 1815.25 1383.63C1758.84 1414.45 1683.9 1435.38 1595.65 1445.78C1419.15 1466.57 1189.5 1445.22 948.55 1376.78C707.6 1308.35 501.014 1205.8 361.791 1095.34C292.179 1040.11 239.427 982.914 207.635 927.04C175.843 871.167 165.027 816.649 179.207 766.723Z" stroke="#2E2E2E"/>
<path d="M183.663 751.538C198.712 701.868 237.274 661.842 294.217 632.01C351.163 602.178 426.455 582.562 514.875 573.709C691.711 556.002 920.952 581.355 1160.67 653.984C1400.39 726.612 1605.16 832.752 1742.43 945.626C1811.07 1002.06 1862.81 1060.17 1893.62 1116.59C1924.44 1173.01 1934.3 1227.71 1919.25 1277.38C1904.2 1327.05 1865.64 1367.07 1808.7 1396.91C1751.75 1426.74 1676.46 1446.35 1588.04 1455.21C1411.2 1472.91 1181.96 1447.56 942.242 1374.93C702.523 1302.3 497.758 1196.16 360.485 1083.29C291.847 1026.85 240.102 968.748 209.289 912.327C178.477 855.908 168.615 801.209 183.663 751.538Z" stroke="#2E2E2E"/>
<path d="M188.384 736.433C204.298 687.033 243.553 647.685 301.008 618.852C358.465 590.018 434.088 571.719 522.649 564.411C699.767 549.793 928.531 579.143 1166.95 655.944C1405.36 732.745 1608.24 842.443 1743.53 957.695C1811.17 1015.32 1861.89 1074.32 1891.71 1131.27C1921.54 1188.22 1930.44 1243.08 1914.53 1292.48C1898.62 1341.88 1859.36 1381.23 1801.91 1410.06C1744.45 1438.9 1668.83 1457.2 1580.27 1464.5C1403.15 1479.12 1174.38 1449.77 935.968 1372.97C697.553 1296.17 494.672 1186.47 359.389 1071.22C291.746 1013.59 241.023 954.594 211.2 897.644C181.378 840.696 172.471 785.833 188.384 736.433Z" stroke="#2E2E2E"/>
<path d="M193.368 721.413C210.141 672.298 250.077 633.642 308.026 605.816C365.978 577.989 441.909 561.013 530.584 555.251C707.93 543.726 936.147 577.064 1173.19 658.015C1410.22 738.965 1611.16 852.187 1744.41 969.782C1811.04 1028.58 1860.72 1088.46 1889.55 1145.92C1918.37 1203.38 1926.32 1258.39 1909.55 1307.5C1892.77 1356.62 1852.84 1395.27 1794.89 1423.1C1736.94 1450.93 1661 1467.9 1572.33 1473.67C1394.98 1485.19 1166.77 1451.85 929.729 1370.9C692.69 1289.95 491.755 1176.73 358.504 1059.13C291.877 1000.33 242.191 940.459 213.367 882.997C184.543 825.538 176.595 770.528 193.368 721.413Z" stroke="#2E2E2E"/>
<path d="M198.613 706.482C216.24 657.668 256.845 619.714 315.271 592.904C373.7 566.092 449.915 550.444 538.677 546.23C716.197 537.803 943.798 575.118 1179.39 660.194C1414.98 745.269 1613.91 861.98 1745.08 981.883C1810.67 1041.84 1859.31 1102.57 1887.12 1160.52C1914.94 1218.48 1921.93 1273.62 1904.3 1322.43C1886.67 1371.25 1846.07 1409.2 1787.64 1436.01C1729.21 1462.82 1653 1478.47 1564.24 1482.69C1386.72 1491.11 1159.12 1453.8 923.526 1368.72C687.937 1283.65 489.007 1166.94 357.829 1047.03C292.239 987.081 243.606 926.347 215.788 868.391C187.972 810.437 180.985 755.296 198.613 706.482Z" stroke="#2E2E2E"/>
<path d="M204.118 691.645C222.595 643.145 263.855 605.906 322.74 580.119C381.628 554.332 458.105 540.016 546.927 537.352C724.568 532.024 951.482 573.306 1185.55 662.48C1419.62 751.654 1616.48 871.819 1745.55 993.993C1810.08 1055.08 1857.65 1116.65 1884.45 1175.09C1911.25 1233.52 1917.27 1288.77 1898.8 1337.27C1880.32 1385.77 1839.06 1423.01 1780.17 1448.8C1721.28 1474.58 1644.81 1488.9 1555.99 1491.56C1378.35 1496.89 1151.43 1455.61 917.363 1366.44C683.294 1277.26 486.432 1157.1 357.366 1034.92C292.833 973.834 245.267 912.261 218.465 853.829C191.664 795.398 185.641 740.144 204.118 691.645Z" stroke="#2E2E2E"/>
<path d="M209.881 676.905C229.201 628.736 271.106 592.222 330.432 567.467C389.761 542.711 466.476 529.732 555.331 528.619C733.037 526.392 959.196 571.628 1191.67 664.873C1424.15 758.119 1618.89 881.701 1745.8 1006.11C1809.26 1068.31 1855.74 1130.71 1881.52 1189.6C1907.29 1248.49 1912.35 1303.84 1893.03 1352.01C1873.71 1400.18 1831.81 1436.69 1772.48 1461.45C1713.15 1486.2 1636.44 1499.18 1547.58 1500.3C1369.88 1502.52 1143.72 1457.29 911.241 1364.04C678.764 1270.8 484.029 1147.21 357.115 1022.81C293.657 960.6 247.173 898.206 221.395 839.315C195.618 780.425 190.56 725.074 209.881 676.905Z" stroke="#2E2E2E"/>
<path d="M215.9 662.268C236.058 614.443 278.593 578.667 338.343 554.951C398.094 531.234 475.025 519.596 563.885 520.034C741.603 520.909 966.939 570.085 1197.75 667.373C1428.57 764.661 1621.12 891.624 1745.84 1018.23C1808.2 1081.53 1853.59 1144.73 1878.33 1204.06C1903.08 1263.39 1907.17 1318.82 1887.01 1366.64C1866.86 1414.47 1824.32 1450.25 1764.57 1473.96C1704.82 1497.68 1627.89 1509.32 1539.03 1508.88C1361.31 1508 1135.98 1458.83 905.161 1361.54C674.347 1264.25 481.798 1137.29 357.075 1010.69C294.713 947.382 249.324 884.187 224.578 824.854C199.833 765.524 195.742 710.093 215.9 662.268Z" stroke="#2E2E2E"/>
<path d="M222.174 647.739C243.164 600.274 286.317 565.245 346.471 542.575C406.627 519.905 483.749 509.611 572.588 511.6C750.264 515.576 974.707 568.677 1203.79 669.979C1432.87 771.281 1623.17 901.584 1745.67 1030.35C1806.92 1094.73 1851.19 1158.71 1874.9 1218.46C1898.61 1278.21 1901.73 1333.71 1880.74 1381.17C1859.75 1428.64 1816.6 1463.67 1756.44 1486.34C1696.29 1509.01 1619.16 1519.3 1530.33 1517.31C1352.65 1513.34 1128.21 1460.24 899.126 1358.93C670.045 1257.63 479.742 1127.33 357.247 998.567C295.999 934.186 251.72 870.208 228.013 810.452C204.307 750.699 201.184 695.205 222.174 647.739Z" stroke="#2E2E2E"/>
<path d="M228.7 633.323C250.515 586.231 294.273 551.96 354.814 530.344C415.357 508.727 492.646 499.781 581.437 503.319C759.017 510.396 982.499 567.406 1209.78 672.691C1437.06 777.975 1625.06 911.58 1745.28 1042.46C1805.4 1107.9 1848.55 1172.64 1871.21 1232.8C1893.87 1292.96 1896.03 1348.5 1874.21 1395.59C1852.4 1442.68 1808.64 1476.95 1748.1 1498.57C1687.56 1520.19 1610.27 1529.13 1521.48 1525.6C1343.9 1518.52 1120.42 1461.51 893.137 1356.22C665.859 1250.94 477.859 1117.33 357.63 986.455C297.515 921.014 254.36 856.273 231.699 796.113C209.039 735.955 206.885 680.415 228.7 633.323Z" stroke="#2E2E2E"/>
<path d="M235.477 619.022C258.111 572.318 302.46 538.816 363.368 518.26C424.279 497.703 501.713 490.107 590.429 495.195C767.858 505.37 990.311 566.271 1215.72 675.506C1441.12 784.741 1626.76 921.606 1744.69 1054.56C1803.65 1121.04 1845.67 1186.53 1867.28 1247.08C1888.88 1307.62 1890.07 1363.19 1867.44 1409.89C1844.8 1456.6 1800.45 1490.1 1739.54 1510.65C1678.63 1531.21 1601.2 1538.81 1512.48 1533.72C1335.06 1523.55 1112.6 1462.64 887.196 1353.41C661.79 1244.17 476.15 1107.31 358.224 974.35C299.26 907.87 257.241 842.386 235.634 781.839C214.028 721.295 212.843 665.727 235.477 619.022Z" stroke="#2E2E2E"/>
<path d="M242.503 604.841C265.948 558.539 310.875 525.816 372.133 506.326C433.394 486.835 510.949 480.592 599.562 487.227C776.786 500.497 998.143 565.271 1221.61 678.424C1445.07 791.576 1628.3 931.66 1743.88 1066.66C1801.68 1134.16 1842.55 1200.36 1863.09 1261.28C1883.64 1322.19 1883.86 1377.77 1860.41 1424.07C1836.97 1470.37 1792.04 1503.1 1730.78 1522.59C1669.52 1542.08 1591.97 1548.32 1503.35 1541.69C1326.13 1528.42 1104.77 1463.64 881.306 1350.49C657.841 1237.34 474.618 1097.25 359.03 962.257C301.235 894.758 260.366 828.55 239.819 767.636C219.272 706.724 219.058 651.143 242.503 604.841Z" stroke="#2E2E2E"/>
<path d="M249.775 590.785C274.025 544.899 319.516 512.965 381.105 494.547C442.696 476.129 520.348 471.24 608.833 479.42C785.798 495.781 1005.99 564.409 1227.45 681.444C1448.9 798.479 1629.65 941.74 1742.87 1078.73C1799.48 1147.23 1839.18 1214.14 1858.66 1275.4C1878.14 1336.67 1877.39 1392.24 1853.14 1438.13C1828.89 1484.01 1783.4 1515.95 1721.81 1534.37C1660.22 1552.78 1582.57 1557.67 1494.08 1549.49C1317.12 1533.13 1096.92 1464.5 875.468 1347.47C654.011 1230.43 473.261 1087.17 360.046 950.18C303.438 881.683 263.731 814.772 244.25 753.508C224.77 692.247 225.525 636.671 249.775 590.785Z" stroke="#2E2E2E"/>
<path d="M257.292 576.857C282.339 531.402 328.38 500.267 390.281 482.927C452.185 465.586 529.91 462.053 618.238 471.776C794.891 491.223 1013.85 563.684 1233.23 684.566C1452.61 805.448 1630.84 951.841 1741.64 1090.79C1797.05 1160.26 1835.58 1227.86 1853.99 1289.45C1872.39 1351.04 1870.67 1406.6 1845.62 1452.05C1820.58 1497.51 1774.53 1528.64 1712.63 1545.98C1650.73 1563.33 1573 1566.86 1484.68 1557.14C1308.02 1537.69 1089.06 1465.23 869.683 1344.35C650.303 1223.46 472.08 1077.07 361.274 938.123C305.87 868.648 267.336 801.054 248.927 739.46C230.519 677.868 232.245 622.313 257.292 576.857Z" stroke="#2E2E2E"/>
<path d="M265.049 563.065C290.886 518.053 337.464 487.727 399.658 471.469C461.854 455.211 539.63 453.036 627.774 464.299C804.061 486.826 1021.72 563.097 1238.96 687.789C1456.2 812.482 1631.84 961.963 1740.2 1102.82C1794.39 1173.26 1831.73 1241.51 1849.06 1303.42C1866.4 1365.32 1863.7 1420.84 1837.86 1465.85C1812.03 1510.86 1765.45 1541.19 1703.26 1557.44C1641.06 1573.7 1563.28 1575.88 1475.14 1564.61C1298.85 1542.09 1081.19 1465.82 863.953 1341.12C646.715 1216.43 471.075 1066.95 362.711 926.09C308.528 855.659 271.179 787.403 253.848 725.496C236.518 663.592 239.213 608.077 265.049 563.065Z" stroke="#2E2E2E"/>
<path d="M273.047 549.409C299.665 504.855 346.765 475.347 409.234 460.177C471.705 445.007 549.506 444.189 637.441 456.989C813.308 482.589 1029.61 562.647 1244.63 691.112C1459.66 819.577 1632.67 972.101 1738.56 1114.83C1791.5 1186.2 1827.65 1255.09 1843.9 1317.29C1860.15 1379.49 1856.48 1434.95 1829.87 1479.5C1803.25 1524.06 1756.15 1553.57 1693.68 1568.74C1631.21 1583.91 1553.41 1584.73 1465.47 1571.93C1289.61 1546.33 1073.31 1466.27 858.28 1337.8C643.252 1209.34 470.247 1056.81 364.358 914.083C311.412 842.717 275.261 773.82 259.013 711.621C242.766 649.424 246.429 593.963 273.047 549.409Z" stroke="#2E2E2E"/>
<path d="M281.282 535.895C308.673 491.812 356.281 463.13 419.005 449.053C481.731 434.975 559.535 435.515 647.233 449.848C822.626 478.514 1037.49 562.334 1250.25 694.532C1463 826.73 1633.32 982.25 1736.7 1126.81C1788.39 1199.09 1823.33 1268.6 1838.49 1331.08C1853.65 1393.55 1849.02 1448.94 1821.63 1493.02C1794.24 1537.1 1746.63 1565.78 1683.91 1579.86C1621.18 1593.94 1543.38 1593.4 1455.68 1579.07C1280.29 1550.4 1065.42 1466.58 852.666 1334.38C639.913 1202.18 469.597 1046.66 366.214 902.107C314.522 829.827 279.579 760.31 264.419 697.836C249.26 635.365 253.89 579.977 281.282 535.895Z" stroke="#2E2E2E"/>
<path d="M289.751 522.526C317.908 478.929 366.009 451.082 428.969 438.101C491.931 425.121 569.714 427.018 657.148 442.88C832.015 474.602 1045.39 562.16 1255.8 698.05C1466.21 833.941 1633.79 992.41 1734.63 1138.75C1785.06 1211.92 1818.78 1282.04 1832.85 1344.76C1846.92 1407.49 1841.32 1462.79 1813.16 1506.39C1785.01 1549.98 1736.9 1577.83 1673.94 1590.81C1610.98 1603.79 1533.2 1601.9 1445.77 1586.03C1270.9 1554.31 1057.53 1466.75 847.113 1330.86C636.7 1194.97 469.123 1036.5 368.279 890.165C317.857 816.995 284.132 746.878 270.065 684.149C255.998 621.423 261.594 566.124 289.751 522.526Z" stroke="#2E2E2E"/>
<path d="M298.453 509.307C327.366 466.207 375.946 439.204 439.123 427.325C502.302 415.445 580.04 418.7 667.184 436.084C841.47 470.854 1053.28 562.122 1261.29 701.664C1469.3 841.207 1634.09 1002.58 1732.36 1150.65C1781.5 1224.69 1813.99 1295.39 1826.97 1358.35C1839.94 1421.31 1833.37 1476.5 1804.46 1519.6C1775.55 1562.7 1726.97 1589.71 1663.79 1601.59C1600.61 1613.47 1522.87 1610.21 1435.73 1592.83C1261.44 1558.06 1049.63 1466.79 841.622 1327.25C633.612 1187.71 468.827 1026.34 370.553 878.26C321.415 804.221 288.919 733.526 275.948 670.562C262.979 607.6 269.539 552.407 298.453 509.307Z" stroke="#2E2E2E"/>
<path d="M307.383 496.243C337.045 453.654 386.088 427.503 449.463 416.728C512.84 405.952 590.509 410.563 677.336 429.466C850.989 467.272 1061.18 562.223 1266.72 705.374C1472.26 848.526 1634.21 1012.75 1729.88 1162.52C1777.72 1237.4 1808.98 1308.65 1820.85 1371.83C1832.71 1435.01 1825.19 1490.08 1795.53 1532.67C1765.87 1575.26 1716.83 1601.41 1653.45 1612.19C1590.07 1622.96 1512.41 1618.35 1425.58 1599.45C1251.93 1561.64 1041.74 1466.69 836.196 1323.54C630.653 1180.39 468.709 1016.17 373.033 866.398C325.195 791.512 293.938 720.261 282.068 657.08C270.199 593.901 277.722 538.831 307.383 496.243Z" stroke="#2E2E2E"/>
<path d="M316.54 483.336C346.94 441.272 396.433 415.98 459.986 406.313C523.541 396.645 601.118 402.611 687.602 423.027C860.569 463.857 1069.07 562.462 1272.08 709.179C1475.09 855.896 1634.15 1022.92 1727.19 1174.33C1773.72 1250.04 1803.73 1321.83 1814.49 1385.21C1825.26 1448.58 1816.77 1503.51 1786.37 1545.58C1755.97 1587.64 1706.48 1612.93 1642.93 1622.6C1579.37 1632.27 1501.8 1626.3 1415.31 1605.89C1242.34 1565.06 1033.85 1466.45 830.833 1319.74C627.82 1173.02 468.767 1006 375.72 854.581C329.196 778.872 299.187 707.086 288.422 643.707C277.657 580.331 286.14 525.401 316.54 483.336Z" stroke="#2E2E2E"/>
<path d="M325.922 470.59C357.052 429.063 406.978 404.639 470.69 396.082C534.405 387.525 611.865 394.844 697.98 416.766C870.208 460.609 1076.95 562.837 1277.37 713.075C1477.8 863.312 1633.91 1033.09 1724.3 1186.1C1769.5 1262.61 1798.25 1334.91 1807.9 1398.47C1817.56 1462.02 1808.12 1516.79 1776.99 1558.32C1745.86 1599.85 1695.94 1624.27 1632.22 1632.83C1568.51 1641.39 1491.05 1634.07 1404.93 1612.15C1232.71 1568.3 1025.96 1466.08 825.54 1315.84C625.118 1165.6 469.004 995.828 378.614 842.811C333.418 766.302 304.667 694.003 295.01 630.446C285.353 566.891 294.793 512.118 325.922 470.59Z" stroke="#2E2E2E"/>
<path d="M335.524 458.011C367.374 417.033 417.719 393.485 481.57 386.041C545.424 378.597 622.746 387.267 708.465 410.688C879.901 457.53 1084.83 563.352 1282.6 717.064C1480.37 870.777 1633.5 1043.25 1721.2 1197.82C1765.06 1275.11 1792.54 1347.89 1801.09 1411.61C1809.63 1475.32 1799.24 1529.92 1767.39 1570.9C1735.54 1611.88 1685.19 1635.43 1621.34 1642.87C1557.49 1650.32 1480.17 1641.65 1394.45 1618.23C1223.01 1571.38 1018.08 1465.56 820.314 1311.85C622.545 1158.14 469.418 985.666 381.712 831.095C337.858 753.808 310.373 681.019 301.826 617.303C293.28 553.59 303.675 498.989 335.524 458.011Z" stroke="#2E2E2E"/>
<path d="M345.345 445.601C377.904 405.185 428.653 382.519 492.625 376.191C556.599 369.862 633.757 379.88 719.055 404.794C889.647 454.621 1092.7 564.003 1287.76 721.143C1482.81 878.284 1632.91 1053.4 1717.9 1209.48C1760.4 1287.52 1786.61 1360.78 1794.04 1424.63C1801.47 1488.49 1790.13 1542.9 1757.57 1583.31C1725.01 1623.73 1674.26 1646.39 1610.29 1652.72C1546.32 1659.05 1469.16 1649.03 1383.86 1624.12C1213.27 1574.29 1010.22 1464.91 815.159 1307.77C620.103 1150.63 470.009 975.512 385.014 819.434C342.516 741.394 316.305 668.136 308.872 604.281C301.439 540.428 312.785 486.017 345.345 445.601Z" stroke="#2E2E2E"/>
<path d="M355.38 433.364C388.64 393.523 439.777 371.746 503.849 366.535C567.924 361.324 644.896 372.687 729.745 399.086C899.442 451.882 1100.55 564.791 1292.84 725.312C1485.12 885.833 1632.14 1063.54 1714.4 1221.08C1755.52 1299.85 1780.45 1373.55 1786.77 1437.53C1793.09 1501.5 1780.79 1555.71 1747.53 1595.55C1714.27 1635.39 1663.14 1657.17 1599.06 1662.38C1534.99 1667.59 1458.02 1656.23 1373.17 1629.83C1203.47 1577.03 1002.36 1464.12 810.076 1303.6C617.792 1143.08 470.777 965.371 388.519 807.833C347.39 729.063 322.461 655.358 316.144 591.383C309.826 527.41 322.12 473.206 355.38 433.364Z" stroke="#2E2E2E"/>
<path d="M365.627 421.305C399.578 382.05 451.086 361.168 515.24 357.077C579.396 352.985 656.158 365.689 740.534 393.565C909.283 449.315 1108.39 565.717 1297.85 729.569C1487.3 893.421 1631.19 1073.67 1710.69 1232.62C1750.44 1312.1 1774.07 1386.22 1779.27 1450.3C1784.47 1514.37 1771.24 1568.35 1737.29 1607.61C1703.34 1646.86 1651.83 1667.75 1587.67 1671.84C1523.52 1675.93 1446.76 1663.22 1362.38 1635.35C1193.63 1579.6 994.52 1463.2 805.066 1299.35C615.613 1135.49 471.722 955.244 392.226 796.295C352.477 716.819 328.839 642.691 323.639 578.615C318.439 514.541 331.677 460.56 365.627 421.305Z" stroke="#2E2E2E"/>
<path d="M376.083 409.426C410.714 370.77 462.579 350.79 526.794 347.819C591.012 344.847 667.54 358.89 751.417 388.233C919.168 446.92 1116.22 566.779 1302.78 733.913C1489.35 901.046 1630.07 1083.78 1706.78 1244.09C1745.14 1324.25 1767.48 1398.78 1771.56 1462.93C1775.64 1527.09 1761.46 1580.83 1726.83 1619.49C1692.2 1658.14 1640.33 1678.12 1576.12 1681.1C1511.9 1684.07 1435.37 1670.03 1351.5 1640.68C1183.75 1581.99 986.697 1462.14 800.132 1295C613.567 1127.87 472.844 945.136 396.134 784.823C357.778 704.666 335.437 630.136 331.356 565.979C327.275 501.825 341.453 448.082 376.083 409.426Z" stroke="#2E2E2E"/>
<path d="M386.746 397.73C422.046 359.684 474.252 340.613 538.509 338.763C602.769 336.913 679.04 352.288 762.392 383.091C929.093 444.697 1124.02 567.976 1307.64 738.341C1491.26 908.705 1628.77 1093.87 1702.67 1255.49C1739.62 1336.31 1760.66 1411.21 1763.62 1475.43C1766.58 1539.65 1751.47 1593.14 1716.17 1631.18C1680.87 1669.23 1628.66 1688.3 1564.4 1690.15C1500.14 1692 1423.87 1676.62 1340.52 1645.82C1173.82 1584.22 978.894 1460.94 795.274 1290.57C611.655 1120.21 474.142 935.047 400.242 773.42C363.291 692.605 342.254 617.698 339.293 553.479C336.332 489.263 351.446 435.777 386.746 397.73Z" stroke="#2E2E2E"/>
<path d="M397.611 386.224C433.569 348.8 486.1 330.642 550.38 329.914C614.662 329.185 690.654 345.89 773.455 378.143C939.056 442.648 1131.8 569.311 1312.42 742.854C1493.04 916.397 1627.3 1103.93 1698.37 1266.82C1733.9 1348.27 1753.63 1423.53 1755.47 1487.79C1757.31 1552.05 1741.26 1605.26 1705.3 1642.69C1669.35 1680.11 1616.81 1698.27 1552.53 1699C1488.25 1699.73 1412.26 1683.02 1329.46 1650.77C1163.86 1586.27 971.113 1459.6 790.495 1286.06C609.876 1112.52 475.616 924.984 404.548 762.092C369.013 680.645 349.287 605.381 347.447 541.121C345.607 476.863 361.652 423.648 397.611 386.224Z" stroke="#2E2E2E"/>
<path d="M408.674 374.909C445.28 338.118 498.12 320.88 562.403 321.274C626.688 321.668 702.376 339.696 784.602 373.389C949.052 440.775 1139.56 570.782 1317.12 747.451C1494.68 924.119 1625.65 1113.97 1693.86 1278.07C1727.97 1360.13 1746.38 1435.73 1747.1 1500.01C1747.82 1564.29 1730.85 1617.21 1694.24 1654C1657.63 1690.8 1604.79 1708.03 1540.51 1707.64C1476.23 1707.25 1400.54 1689.22 1318.31 1655.53C1153.86 1588.14 963.356 1458.13 785.794 1281.46C608.231 1104.8 477.265 914.948 409.05 750.841C374.942 668.786 356.532 593.189 355.814 528.907C355.097 464.627 372.068 411.7 408.674 374.909Z" stroke="#2E2E2E"/>
<path d="M419.934 363.788C457.176 327.641 510.309 311.328 574.575 312.844C638.844 314.359 714.206 333.705 795.831 368.829C959.08 439.074 1147.29 572.386 1321.74 752.127C1496.19 931.868 1623.83 1123.97 1689.17 1289.25C1721.84 1371.88 1738.92 1447.79 1738.52 1512.07C1738.11 1576.36 1720.22 1628.98 1682.98 1665.12C1645.74 1701.27 1592.6 1717.58 1528.34 1716.07C1464.07 1714.55 1388.71 1695.21 1307.08 1660.09C1143.83 1589.84 955.627 1456.53 781.174 1276.79C606.722 1097.05 479.089 904.942 413.749 739.669C381.078 657.031 363.991 581.125 364.395 516.84C364.799 452.557 382.691 399.934 419.934 363.788Z" stroke="#2E2E2E"/>
<path d="M431.386 352.865C469.253 317.374 522.663 301.991 586.892 304.628C651.125 307.265 726.138 327.923 807.138 364.466C969.136 437.55 1154.99 574.126 1326.28 756.884C1497.57 939.642 1621.83 1133.94 1684.27 1300.33C1715.5 1383.53 1731.26 1459.72 1729.73 1523.99C1728.2 1588.25 1709.4 1640.56 1671.53 1676.05C1633.66 1711.54 1580.25 1726.92 1516.02 1724.29C1451.79 1721.65 1376.78 1700.99 1295.78 1664.45C1133.78 1591.36 947.926 1454.79 776.637 1272.03C605.349 1089.27 481.087 894.969 418.642 728.581C387.418 645.386 371.658 569.193 373.184 504.924C374.71 440.659 393.518 388.356 431.386 352.865Z" stroke="#2E2E2E"/>
<path d="M443.026 342.145C481.508 307.32 535.177 292.871 599.351 296.629C663.528 300.386 738.169 322.351 818.519 360.301C979.217 436.201 1162.66 576.001 1330.73 761.72C1498.8 947.44 1619.65 1143.88 1679.19 1311.33C1708.95 1395.06 1723.38 1471.52 1720.73 1535.75C1718.09 1599.98 1698.37 1651.94 1659.89 1686.77C1621.41 1721.59 1567.74 1736.04 1503.56 1732.29C1439.39 1728.53 1364.74 1706.56 1284.39 1668.61C1123.7 1592.71 940.257 1452.91 772.184 1267.19C604.111 1081.48 483.26 885.034 423.727 717.581C393.961 633.853 379.532 557.397 382.18 493.165C384.827 428.935 404.545 376.969 443.026 342.145Z" stroke="#2E2E2E"/>
<path d="M454.853 331.628C493.936 297.48 547.849 283.97 611.948 288.847C676.049 293.724 750.296 316.988 829.971 356.335C989.32 435.028 1170.29 578.008 1335.1 766.632C1499.9 955.257 1617.31 1153.78 1673.91 1322.24C1702.21 1406.48 1715.3 1483.17 1711.53 1547.35C1707.77 1611.52 1687.14 1663.14 1648.06 1697.28C1608.98 1731.43 1555.06 1744.94 1490.97 1740.07C1426.86 1735.19 1352.62 1711.93 1272.94 1672.58C1113.59 1593.89 932.622 1450.91 767.816 1262.28C603.01 1073.66 485.605 875.136 429.004 706.67C400.703 622.436 387.612 545.739 391.38 481.563C395.147 417.39 415.769 365.776 454.853 331.628Z" stroke="#2E2E2E"/>
<path d="M466.861 321.319C506.534 287.859 560.675 275.292 624.679 281.287C688.685 287.281 762.514 311.838 841.491 352.569C999.442 434.031 1177.89 580.147 1339.38 771.619C1500.87 963.092 1614.79 1163.63 1668.44 1333.06C1695.27 1417.77 1707.02 1494.69 1702.13 1558.79C1697.25 1622.89 1675.73 1674.13 1636.05 1707.59C1596.38 1741.05 1542.24 1753.62 1478.24 1747.63C1414.23 1741.63 1340.4 1717.07 1261.42 1676.34C1103.47 1594.88 925.023 1448.77 763.534 1257.29C602.045 1065.82 488.123 865.282 434.471 695.853C407.644 611.138 395.893 534.225 400.781 470.124C405.668 406.026 427.187 354.78 466.861 321.319Z" stroke="#2E2E2E"/>
<path d="M479.046 311.223C519.297 278.46 573.65 266.84 637.539 273.951C701.431 281.062 774.82 306.903 853.074 349.006C1009.58 433.213 1185.45 582.421 1343.57 776.682C1501.7 970.943 1612.1 1173.44 1662.79 1343.78C1688.13 1428.95 1698.54 1506.06 1692.53 1570.06C1686.53 1634.06 1664.12 1684.93 1623.87 1717.69C1583.62 1750.45 1529.26 1762.07 1465.37 1754.96C1401.48 1747.85 1328.09 1722.01 1249.84 1679.91C1093.33 1595.7 917.462 1446.49 759.339 1252.23C601.217 1057.97 490.812 855.474 440.125 685.135C414.781 599.964 404.374 522.857 410.379 458.852C416.384 394.849 438.795 343.986 479.046 311.223Z" stroke="#2E2E2E"/>
<path d="M491.406 301.341C532.223 269.285 586.77 258.616 650.525 266.84C714.284 275.065 787.211 302.183 864.718 345.646C1019.73 432.571 1192.97 584.826 1347.68 781.817C1502.39 978.808 1609.24 1183.2 1656.95 1354.4C1680.8 1440 1689.86 1517.27 1682.74 1581.17C1675.62 1645.05 1652.32 1695.52 1611.51 1727.57C1570.69 1759.63 1516.14 1770.3 1452.39 1762.07C1388.63 1753.85 1315.7 1726.73 1238.2 1683.27C1083.18 1596.34 909.942 1444.09 755.234 1247.1C600.525 1050.11 493.671 845.714 445.965 674.516C422.111 588.916 413.052 511.64 420.173 447.749C427.294 383.86 450.589 333.396 491.406 301.341Z" stroke="#2E2E2E"/>
<path d="M503.938 291.674C545.308 260.336 600.032 250.62 663.635 259.956C727.24 269.292 799.682 297.679 876.419 342.488C1029.89 432.105 1200.45 587.36 1351.69 787.022C1502.94 986.683 1606.21 1192.91 1650.92 1364.91C1673.28 1450.92 1680.99 1528.34 1672.75 1592.1C1664.52 1655.85 1640.35 1705.9 1598.98 1737.24C1557.61 1768.58 1502.88 1778.29 1439.28 1768.96C1375.67 1759.62 1303.23 1731.23 1226.5 1686.43C1073.02 1596.81 902.466 1441.55 751.219 1241.89C599.972 1042.23 496.702 836.004 451.99 664C429.634 577.997 421.925 500.574 430.16 436.817C438.395 373.062 462.568 323.013 503.938 291.674Z" stroke="#2E2E2E"/>
<path d="M516.635 282.229C558.546 251.617 613.432 242.858 676.862 253.302C740.294 263.748 812.23 293.394 888.173 339.535C1040.06 431.817 1207.88 590.025 1355.62 792.296C1503.36 994.566 1603.01 1202.56 1644.72 1375.32C1665.57 1461.7 1671.92 1539.25 1662.58 1602.85C1653.23 1666.45 1628.19 1716.07 1586.28 1746.68C1544.37 1777.3 1489.48 1786.05 1426.05 1775.61C1362.62 1765.16 1290.68 1735.52 1214.74 1689.38C1062.86 1597.1 895.035 1438.89 747.296 1236.62C599.556 1034.35 499.901 826.349 458.198 653.591C437.346 567.211 430.989 489.665 440.336 426.062C449.683 362.461 474.725 312.84 516.635 282.229Z" stroke="#2E2E2E"/>
<path d="M529.496 273.007C571.934 243.131 626.965 235.331 690.203 246.881C753.443 258.432 824.851 289.329 899.977 336.789C1050.23 431.707 1215.26 592.821 1359.45 797.639C1503.64 1002.46 1599.65 1212.16 1638.33 1385.62C1657.67 1472.35 1662.67 1550 1652.22 1613.43C1641.76 1676.86 1615.86 1726.03 1573.42 1755.91C1530.98 1785.78 1475.95 1793.58 1412.71 1782.03C1349.47 1770.48 1278.06 1739.59 1202.94 1692.13C1052.69 1597.21 887.651 1436.09 743.465 1231.28C599.278 1026.46 503.268 816.752 464.586 643.293C445.245 556.562 440.243 478.917 450.698 415.486C461.153 352.058 487.057 302.882 529.496 273.007Z" stroke="#2E2E2E"/>
<path d="M542.516 264.01C585.469 234.88 640.627 228.041 703.654 240.693C766.683 253.346 837.541 285.485 911.827 334.248C1060.4 431.775 1222.6 595.744 1363.19 803.047C1503.78 1010.35 1596.11 1221.7 1631.76 1395.81C1649.58 1482.86 1653.23 1560.58 1641.67 1623.82C1630.11 1687.06 1603.35 1735.77 1560.4 1764.9C1517.45 1794.03 1462.29 1800.87 1399.26 1788.22C1336.23 1775.57 1265.37 1743.43 1191.09 1694.67C1042.52 1597.14 880.318 1433.17 739.728 1225.87C599.138 1018.56 506.802 807.215 471.153 633.107C453.329 546.051 449.682 468.331 461.243 405.093C472.804 341.857 499.562 293.141 542.516 264.01Z" stroke="#2E2E2E"/>
<path d="M555.691 255.241C599.146 226.865 654.415 220.99 717.211 234.74C780.01 248.491 850.296 281.861 923.72 331.914C1070.57 432.019 1229.88 598.793 1366.83 808.519C1503.78 1018.24 1592.41 1231.17 1625.02 1405.88C1641.32 1493.23 1643.61 1571 1630.95 1634.03C1618.28 1697.05 1590.68 1745.29 1547.22 1773.67C1503.77 1802.05 1448.5 1807.92 1385.7 1794.17C1322.9 1780.42 1252.62 1747.05 1179.2 1697C1032.35 1596.89 873.037 1430.12 736.086 1220.39C599.135 1010.67 510.502 797.74 477.898 623.036C461.595 535.683 459.305 457.911 471.968 394.884C484.631 331.859 512.235 283.618 555.691 255.241Z" stroke="#2E2E2E"/>
<path d="M569.016 246.705C612.96 219.092 668.323 214.182 730.87 229.026C793.419 243.871 863.112 278.463 935.651 329.789C1080.73 432.441 1237.11 601.971 1370.37 814.054C1503.64 1026.14 1588.55 1240.58 1618.1 1415.83C1632.87 1503.45 1633.81 1581.25 1620.04 1644.05C1606.28 1706.84 1577.84 1754.59 1533.9 1782.21C1489.95 1809.82 1434.59 1814.73 1372.04 1799.89C1309.5 1785.04 1239.8 1750.45 1167.26 1699.12C1022.19 1596.47 865.809 1426.94 732.54 1214.86C599.27 1002.78 514.366 788.333 484.816 613.086C470.041 525.462 469.108 447.662 482.869 384.865C496.63 322.071 525.072 274.319 569.016 246.705Z" stroke="#2E2E2E"/>
<path d="M582.489 238.402C626.908 211.56 682.348 207.617 744.626 223.55C806.907 239.484 875.986 275.287 947.618 327.872C1090.88 433.04 1244.28 605.273 1373.82 819.65C1503.37 1034.03 1584.52 1249.92 1611.01 1425.65C1624.25 1513.52 1623.82 1591.33 1608.97 1653.87C1594.12 1716.42 1564.85 1763.67 1520.43 1790.51C1476.01 1817.35 1420.57 1821.29 1358.29 1805.36C1296.01 1789.43 1226.93 1753.63 1155.3 1701.04C1012.03 1595.87 858.639 1423.64 729.091 1209.26C599.543 994.885 518.394 778.993 491.907 603.258C478.664 515.389 479.089 437.584 493.944 375.038C508.798 312.493 538.069 265.244 582.489 238.402Z" stroke="#2E2E2E"/>
<path d="M596.104 230.335C640.985 204.272 696.486 201.298 758.476 218.316C820.469 235.334 888.913 272.337 959.616 326.164C1101.02 433.817 1251.39 608.701 1377.17 825.306C1502.96 1041.91 1580.33 1259.19 1603.75 1435.36C1615.45 1523.44 1613.67 1601.23 1597.73 1663.51C1581.78 1725.78 1551.69 1772.51 1506.81 1798.58C1461.93 1824.64 1406.43 1827.61 1344.44 1810.6C1282.45 1793.58 1214 1756.57 1143.3 1702.75C1001.89 1595.1 851.527 1420.21 725.74 1203.61C599.953 987.001 522.585 769.726 499.169 593.555C487.461 505.468 489.244 427.683 505.188 365.405C521.132 303.129 551.223 256.398 596.104 230.335Z" stroke="#2E2E2E"/>
<path d="M609.858 222.509C655.187 197.233 710.731 195.228 772.415 213.325C834.102 231.423 901.889 269.615 971.642 324.667C1111.15 434.771 1258.44 612.253 1380.43 831.02C1502.41 1049.79 1575.98 1268.38 1596.32 1444.93C1606.48 1533.21 1603.34 1610.95 1586.31 1672.94C1569.29 1734.93 1538.39 1781.13 1493.06 1806.4C1447.73 1831.68 1392.18 1833.69 1330.5 1815.59C1268.81 1797.49 1201.02 1759.3 1131.27 1704.25C991.766 1594.14 844.475 1416.66 722.488 1197.89C600.501 979.126 526.936 760.534 506.598 583.981C496.429 495.704 499.57 417.961 516.598 355.971C533.626 293.983 564.529 247.785 609.858 222.509Z" stroke="#2E2E2E"/>
<path d="M623.746 214.923C669.509 190.442 725.08 189.406 786.439 208.577C847.8 227.748 914.911 267.118 983.693 323.38C1121.26 435.901 1265.43 615.926 1383.58 836.79C1501.73 1057.65 1571.47 1277.5 1588.72 1454.38C1597.35 1542.82 1592.85 1620.49 1574.74 1682.18C1556.63 1743.86 1524.93 1789.51 1479.17 1813.99C1433.4 1838.47 1377.83 1839.51 1316.47 1820.34C1255.11 1801.17 1188 1761.8 1119.22 1705.54C981.658 1593.01 837.487 1412.99 719.337 1192.12C601.186 971.262 531.448 751.419 514.194 574.538C505.567 486.096 510.064 408.42 528.172 346.737C546.279 285.056 577.983 239.403 623.746 214.923Z" stroke="#2E2E2E"/>
<path d="M637.765 207.58C683.949 183.901 739.529 183.836 800.544 204.075C861.561 224.314 927.974 264.849 995.764 322.302C1131.34 437.208 1272.35 619.721 1386.63 842.613C1500.91 1065.5 1566.8 1286.53 1580.96 1463.69C1588.04 1552.27 1582.19 1629.85 1563.01 1691.21C1543.83 1752.56 1511.33 1797.66 1465.15 1821.33C1418.97 1845.01 1363.38 1845.08 1302.37 1824.84C1241.35 1804.6 1174.94 1764.07 1107.15 1706.61C971.572 1591.71 830.565 1409.19 716.286 1186.3C602.008 963.41 536.117 742.383 521.953 565.228C514.871 476.65 520.723 399.064 539.905 337.706C559.086 276.35 591.582 231.258 637.765 207.58Z" stroke="#2E2E2E"/>
<path d="M651.911 200.482C698.5 177.613 754.074 178.518 814.726 199.818C875.381 221.12 941.076 262.807 1007.85 321.435C1141.4 438.689 1279.2 623.636 1389.58 848.488C1499.95 1073.34 1561.97 1295.48 1573.04 1472.86C1578.57 1561.55 1571.37 1639.02 1551.12 1700.03C1530.87 1761.04 1497.59 1805.56 1451 1828.43C1404.41 1851.3 1348.84 1850.39 1288.19 1829.09C1227.53 1807.79 1161.84 1766.11 1095.06 1707.48C961.51 1590.22 823.71 1405.28 713.339 1180.43C602.968 955.573 540.945 733.43 529.875 556.055C524.34 467.366 531.545 389.895 551.794 328.881C572.043 267.869 605.321 223.351 651.911 200.482Z" stroke="#2E2E2E"/>
<path d="M666.177 193.634C713.158 171.582 768.707 173.457 828.979 195.812C889.252 218.169 954.21 260.997 1019.95 320.781C1151.44 440.348 1285.99 627.672 1392.42 854.416C1498.85 1081.16 1556.99 1304.35 1564.96 1481.89C1568.95 1570.66 1560.39 1648 1539.08 1708.65C1517.77 1769.3 1483.72 1813.23 1436.74 1835.28C1389.76 1857.33 1334.21 1855.46 1273.93 1833.1C1213.66 1810.75 1148.7 1767.92 1082.96 1708.14C951.475 1588.57 816.923 1401.24 710.493 1174.5C604.063 947.756 545.926 724.565 537.954 547.023C533.967 458.251 542.523 380.918 563.835 320.266C585.145 259.617 619.195 215.687 666.177 193.634Z" stroke="#2E2E2E"/>
<path d="M680.561 187.035C727.92 165.806 783.428 168.649 843.3 192.054C903.174 215.459 967.375 259.414 1032.06 320.336C1161.44 442.18 1292.7 631.823 1395.16 860.39C1497.62 1088.96 1551.85 1313.13 1556.72 1490.78C1559.16 1579.61 1549.25 1656.78 1526.89 1717.05C1504.52 1777.32 1469.71 1820.65 1422.35 1841.88C1374.99 1863.11 1319.49 1860.27 1259.61 1836.86C1199.74 1813.46 1135.54 1769.5 1070.85 1708.58C941.47 1586.74 810.208 1397.09 707.752 1168.52C605.296 939.958 551.063 715.786 546.19 538.132C543.753 449.304 553.658 372.131 576.024 311.861C598.39 251.593 633.201 208.264 680.561 187.035Z" stroke="#2E2E2E"/>
<path d="M695.058 180.688C742.781 160.289 798.23 164.1 857.685 188.546C917.141 212.993 980.565 258.061 1044.18 320.103C1171.41 444.187 1299.35 636.092 1397.8 866.412C1496.25 1096.73 1546.56 1321.82 1548.33 1499.53C1549.22 1588.39 1537.97 1665.37 1514.55 1725.24C1491.14 1785.11 1455.58 1827.83 1407.86 1848.23C1360.13 1868.63 1304.68 1864.81 1245.23 1840.37C1185.77 1815.92 1122.35 1770.85 1058.73 1708.81C931.499 1584.73 803.567 1392.82 705.116 1162.5C606.664 932.182 556.352 707.098 554.58 529.386C553.694 440.529 564.944 363.541 588.359 303.671C611.773 243.802 647.335 201.087 695.058 180.688Z" stroke="#2E2E2E"/>
<path d="M708.663 174.595C756.735 155.032 812.109 159.811 871.128 185.29C930.149 210.771 992.777 256.939 1055.3 320.082C1180.35 446.367 1304.91 640.476 1399.33 872.479C1493.75 1104.48 1540.12 1330.41 1538.79 1508.13C1538.13 1596.99 1525.53 1673.76 1501.08 1733.22C1476.62 1792.67 1440.32 1834.76 1392.25 1854.32C1344.18 1873.88 1288.8 1869.1 1229.78 1843.62C1170.76 1818.14 1108.14 1771.98 1045.61 1708.83C920.565 1582.55 796.002 1388.44 701.585 1156.44C607.167 924.432 560.791 698.504 562.121 520.789C562.786 431.93 575.378 355.15 599.834 295.697C624.29 236.246 660.592 194.158 708.663 174.595Z" stroke="#2E2E2E"/>
<path d="M723.373 168.757C771.779 150.036 827.061 155.781 885.627 182.286C944.194 208.793 1006.01 256.048 1067.42 320.272C1190.24 448.72 1311.4 644.973 1401.75 878.589C1492.11 1112.21 1534.53 1338.91 1530.1 1516.57C1527.89 1605.41 1513.96 1681.96 1488.47 1740.97C1462.98 1799.99 1425.95 1841.43 1377.54 1860.16C1329.14 1878.88 1273.85 1873.13 1215.29 1846.63C1156.72 1820.12 1094.91 1772.87 1033.49 1708.64C910.67 1580.19 789.513 1383.94 699.16 1150.33C608.806 916.709 566.38 690.006 570.811 512.341C573.027 423.507 586.957 346.958 612.447 287.942C637.936 228.927 674.968 187.479 723.373 168.757Z" stroke="#2E2E2E"/>
<path d="M738.182 163.178C786.907 145.304 842.081 152.013 900.175 179.537C958.271 207.061 1019.25 255.388 1079.53 320.674C1200.1 451.246 1317.81 649.584 1404.07 884.741C1490.33 1119.9 1528.8 1347.31 1521.27 1524.87C1517.5 1613.65 1502.24 1689.94 1475.72 1748.51C1449.2 1807.07 1411.46 1847.86 1362.73 1865.74C1314.01 1883.61 1258.83 1876.9 1200.74 1849.38C1142.64 1821.85 1081.66 1773.53 1021.38 1708.24C900.818 1577.67 783.105 1379.33 696.842 1144.17C610.579 909.017 572.116 681.608 579.647 504.047C583.413 415.265 598.677 338.971 625.193 280.408C651.708 221.847 689.458 181.052 738.182 163.178Z" stroke="#2E2E2E"/>
<path d="M753.087 157.858C802.116 140.837 857.165 148.508 914.769 177.041C972.376 205.576 1032.5 254.959 1091.64 321.288C1209.9 453.943 1324.14 654.305 1406.28 890.932C1488.43 1127.56 1522.92 1355.61 1512.29 1533.01C1506.97 1621.71 1490.38 1697.72 1462.84 1755.82C1435.31 1813.91 1396.86 1854.04 1347.83 1871.06C1298.8 1888.08 1243.75 1880.41 1186.14 1851.87C1128.54 1823.34 1068.41 1773.96 1009.28 1707.63C891.011 1574.97 776.778 1374.61 694.632 1137.98C612.487 901.356 577.998 673.31 588.627 495.908C593.942 407.205 610.534 331.19 638.069 273.098C665.602 215.009 704.057 174.878 753.087 157.858Z" stroke="#2E2E2E"/>
<path d="M768.082 152.799C817.401 136.636 872.307 145.266 929.405 174.801C986.505 204.336 1045.76 254.761 1103.73 322.112C1219.66 456.812 1330.38 659.137 1408.38 897.161C1486.39 1135.19 1516.89 1363.8 1503.17 1540.99C1496.3 1629.58 1478.39 1705.3 1449.84 1762.9C1421.3 1820.5 1382.15 1859.95 1332.83 1876.12C1283.51 1892.28 1228.61 1883.65 1171.51 1854.11C1114.41 1824.58 1055.15 1774.15 997.187 1706.8C881.254 1572.1 770.534 1369.78 692.531 1131.75C614.527 893.73 584.024 665.117 597.748 487.927C604.609 399.331 622.526 323.616 651.07 266.014C679.613 208.414 718.763 168.961 768.082 152.799Z" stroke="#2E2E2E"/>
<path d="M783.163 148.001C832.757 132.702 887.504 142.289 944.078 172.815C1000.65 203.343 1059.02 254.794 1115.8 323.146C1229.37 459.849 1336.54 664.075 1410.38 903.425C1484.21 1142.77 1510.72 1371.89 1493.91 1548.81C1485.5 1637.27 1466.27 1712.66 1436.72 1769.76C1407.18 1826.85 1367.34 1865.61 1317.75 1880.91C1268.16 1896.21 1213.41 1886.62 1156.84 1856.1C1100.26 1825.57 1041.9 1774.12 985.112 1705.77C871.547 1569.07 764.376 1364.84 690.538 1125.49C616.701 886.139 590.192 657.029 607.006 480.105C615.413 391.643 634.649 316.252 664.194 259.157C693.737 202.064 733.57 163.3 783.163 148.001Z" stroke="#2E2E2E"/>
<path d="M798.325 143.469C848.178 129.038 902.75 139.578 958.782 171.088C1014.82 202.598 1072.27 255.06 1127.86 324.393C1239.02 463.057 1342.61 669.122 1412.26 909.724C1481.91 1150.33 1504.41 1379.86 1484.51 1556.47C1474.56 1644.77 1454.02 1719.81 1423.48 1776.38C1392.94 1832.95 1352.44 1871.01 1302.59 1885.45C1252.74 1899.88 1198.16 1889.34 1142.13 1857.83C1086.1 1826.32 1028.64 1773.86 973.057 1704.52C861.895 1565.86 758.304 1359.79 688.655 1119.19C619.006 878.589 596.5 649.051 616.399 472.448C626.349 384.146 646.897 309.102 677.434 252.532C707.97 195.963 748.472 157.9 798.325 143.469Z" stroke="#2E2E2E"/>
<path d="M813.565 139.2C863.662 125.641 918.041 137.133 973.515 169.615C1028.99 202.099 1085.53 255.556 1139.89 325.848C1248.61 466.431 1348.59 674.273 1414.03 916.054C1479.47 1157.83 1497.97 1387.73 1474.99 1563.96C1463.5 1652.07 1441.64 1726.75 1410.13 1782.78C1378.61 1838.8 1337.45 1876.15 1287.35 1889.71C1237.25 1903.27 1182.87 1891.78 1127.4 1859.3C1071.92 1826.81 1015.39 1773.36 961.025 1703.07C852.301 1562.48 752.322 1354.64 686.882 1112.86C621.443 871.08 602.946 641.184 625.924 464.955C637.414 376.839 659.269 302.166 690.788 246.137C722.307 190.11 763.467 152.759 813.565 139.2Z" stroke="#2E2E2E"/>
<path d="M828.876 135.2C879.202 122.518 933.373 134.957 988.271 168.402C1043.17 201.849 1098.76 256.284 1151.89 327.514C1258.15 469.973 1354.48 679.529 1415.69 922.415C1476.9 1165.3 1491.38 1395.48 1465.33 1571.29C1452.31 1659.19 1429.15 1733.47 1396.66 1788.94C1364.17 1844.41 1322.36 1881.03 1272.04 1893.71C1221.71 1906.4 1167.54 1893.96 1112.64 1860.51C1057.74 1827.07 1002.15 1772.63 949.021 1701.4C842.766 1558.94 746.43 1349.39 685.22 1106.5C624.011 863.615 609.529 633.431 635.579 457.63C648.604 369.729 671.759 295.448 704.252 239.977C736.743 184.509 778.55 147.883 828.876 135.2Z" stroke="#2E2E2E"/>
<path d="M842.255 131.467C892.795 119.665 946.74 133.047 1001.05 167.446C1055.35 201.845 1109.99 257.243 1161.87 329.389C1265.62 473.681 1358.28 684.886 1415.24 928.803C1472.21 1172.72 1482.67 1403.12 1453.55 1578.44C1439 1666.1 1414.55 1739.97 1381.09 1794.86C1347.64 1849.75 1305.2 1885.65 1254.66 1897.45C1204.12 1909.25 1150.17 1895.87 1095.87 1861.47C1041.56 1827.07 986.924 1771.67 935.048 1699.53C831.295 1555.23 738.631 1344.03 681.669 1100.11C624.708 856.195 614.246 625.794 643.36 450.474C657.918 362.813 682.365 288.948 715.821 234.053C749.276 179.16 791.715 143.269 842.255 131.467Z" stroke="#2E2E2E"/>
<path d="M857.697 128.003C908.435 117.084 962.138 131.406 1015.84 166.747C1069.54 202.089 1123.19 258.432 1173.8 331.473C1275.02 477.553 1363.99 690.343 1416.68 935.217C1469.38 1180.09 1475.82 1410.64 1443.65 1585.43C1427.56 1672.82 1401.83 1746.24 1367.42 1800.55C1333.01 1854.85 1289.96 1889.99 1239.22 1900.91C1188.48 1911.83 1134.78 1897.51 1081.08 1862.17C1027.38 1826.83 973.719 1770.48 923.109 1697.44C821.891 1551.36 732.926 1338.57 680.231 1093.7C627.535 848.824 621.095 618.275 653.265 443.49C669.35 356.097 695.083 282.67 729.492 228.367C763.899 174.066 806.959 138.921 857.697 128.003Z" stroke="#2E2E2E"/>
<path d="M873.196 124.809C924.117 114.777 977.563 130.034 1030.64 166.307C1083.71 202.581 1136.38 259.851 1185.71 333.765C1284.36 481.589 1369.6 695.9 1418.01 941.656C1466.42 1187.41 1468.84 1418.04 1433.62 1592.24C1416.02 1679.33 1389 1752.3 1353.65 1805.99C1318.3 1859.69 1274.64 1894.07 1223.72 1904.11C1172.8 1914.14 1119.35 1898.88 1066.28 1862.61C1013.2 1826.33 960.535 1769.06 911.208 1695.15C812.555 1547.33 727.318 1333.02 678.904 1087.26C630.49 841.503 628.074 610.877 663.29 436.68C680.898 349.581 707.908 276.614 743.259 222.92C778.609 169.228 822.275 134.84 873.196 124.809Z" stroke="#2E2E2E"/>
<path d="M888.75 121.885C939.838 112.744 993.009 128.931 1045.44 166.125C1097.87 203.32 1149.53 261.501 1197.56 336.263C1293.62 485.787 1375.11 701.552 1419.22 948.117C1463.34 1194.68 1461.73 1425.31 1423.48 1598.87C1404.36 1685.65 1376.08 1758.13 1339.79 1811.2C1303.51 1864.27 1259.25 1897.89 1208.16 1907.03C1157.08 1916.17 1103.9 1899.98 1051.47 1862.79C999.039 1825.59 947.379 1767.41 899.349 1692.65C803.291 1543.13 721.807 1327.36 677.689 1080.8C633.572 834.235 635.182 603.601 673.432 430.046C692.557 343.267 720.837 270.783 757.12 217.714C793.402 164.647 837.661 131.026 888.75 121.885Z" stroke="#2E2E2E"/>
<path d="M904.352 119.234C955.592 110.986 1008.47 128.098 1060.25 166.201C1112.02 204.306 1162.66 263.379 1209.38 338.969C1302.81 490.146 1380.52 707.301 1420.33 954.597C1460.13 1201.89 1454.5 1432.46 1413.22 1605.33C1392.59 1691.76 1363.05 1763.74 1325.84 1816.16C1288.64 1868.59 1243.8 1901.43 1192.56 1909.68C1141.32 1917.93 1088.44 1900.82 1036.67 1862.71C984.89 1824.61 934.254 1765.54 887.536 1689.95C794.102 1538.77 716.396 1321.61 676.588 1074.32C636.78 827.021 642.415 596.451 683.689 423.59C704.325 337.158 733.866 265.178 771.07 212.751C808.272 160.325 853.111 127.482 904.352 119.234Z" stroke="#2E2E2E"/>
<path d="M919.997 116.855C971.374 109.502 1023.95 127.535 1075.05 166.536C1126.15 205.538 1175.75 265.486 1221.14 341.88C1311.92 494.665 1385.83 713.143 1421.31 961.096C1456.8 1209.05 1447.14 1439.49 1402.86 1611.6C1380.71 1697.66 1349.92 1769.11 1311.81 1820.88C1273.7 1872.65 1228.29 1904.71 1176.92 1912.06C1125.54 1919.41 1072.97 1901.38 1021.86 1862.38C970.761 1823.38 921.163 1763.43 875.772 1687.03C784.99 1534.25 711.086 1315.77 675.6 1067.82C640.114 819.865 649.772 589.428 694.056 417.313C716.198 331.255 746.991 259.802 785.104 208.031C823.215 156.263 868.621 124.207 919.997 116.855Z" stroke="#2E2E2E"/>
<path d="M935.682 114.75C987.179 108.295 1039.43 127.243 1089.84 167.129C1140.26 207.017 1188.8 267.822 1232.85 344.996C1320.95 499.342 1391.03 719.076 1422.19 967.612C1453.34 1216.15 1439.66 1446.38 1392.38 1617.7C1368.74 1703.35 1336.71 1774.26 1297.7 1825.36C1258.69 1876.45 1212.73 1907.71 1161.23 1914.16C1109.74 1920.62 1057.48 1901.67 1007.07 1861.78C956.655 1821.9 908.111 1761.09 864.06 1683.92C775.958 1529.57 705.878 1309.84 674.725 1061.3C643.572 812.768 657.251 582.535 704.532 411.219C728.173 325.56 760.207 254.655 799.218 203.558C838.227 152.463 884.185 121.204 935.682 114.75Z" stroke="#2E2E2E"/>
<path d="M951.401 112.919C1003 107.363 1054.92 127.221 1104.62 167.981C1154.34 208.743 1201.81 270.385 1244.51 348.316C1329.9 504.177 1396.14 725.1 1422.95 974.141C1449.76 1223.18 1432.06 1453.14 1381.8 1623.61C1356.67 1708.84 1323.4 1779.17 1283.51 1829.58C1243.61 1879.99 1197.11 1910.44 1145.51 1916C1093.91 1921.55 1042 1901.69 992.289 1860.93C942.577 1820.17 895.102 1758.53 852.404 1680.6C767.01 1524.74 700.775 1303.81 673.965 1054.77C647.154 805.733 664.849 575.773 715.112 405.309C740.244 320.076 773.512 249.741 813.408 199.332C853.303 148.925 899.8 118.474 951.401 112.919Z" stroke="#2E2E2E"/>
<path d="M966.15 111.363C1017.84 106.709 1069.4 127.469 1118.39 169.091C1167.38 210.714 1213.77 273.176 1255.1 351.84C1337.77 509.167 1400.13 731.213 1422.59 980.684C1445.06 1230.15 1423.35 1459.77 1370.12 1629.33C1343.5 1714.11 1309.01 1783.86 1268.24 1833.56C1227.47 1883.26 1180.45 1912.9 1128.76 1917.55C1077.07 1922.21 1025.51 1901.45 976.524 1859.82C927.532 1818.2 881.139 1755.74 839.808 1677.08C757.147 1519.75 694.778 1297.7 672.318 1048.23C649.858 798.761 671.563 569.146 724.794 399.585C751.41 314.803 785.899 245.059 826.669 195.354C867.438 145.652 914.459 116.016 966.15 111.363Z" stroke="#2E2E2E"/>
<path d="M981.924 110.08C1033.69 106.329 1084.88 127.986 1133.13 170.456C1181.39 212.928 1226.69 276.19 1266.64 355.564C1346.54 514.309 1405.02 737.41 1423.13 987.235C1441.23 1237.06 1415.52 1466.26 1359.34 1634.87C1331.25 1719.17 1295.55 1788.3 1253.91 1837.29C1212.29 1886.27 1164.75 1915.08 1112.99 1918.83C1061.23 1922.58 1010.04 1900.93 961.781 1858.46C913.523 1815.98 868.228 1752.72 828.276 1673.35C748.373 1514.6 689.889 1291.5 671.786 1041.68C653.683 791.854 679.392 562.652 735.574 394.046C763.666 309.741 799.368 240.61 840.999 191.625C882.629 142.641 930.16 113.831 981.924 110.08Z" stroke="#2E2E2E"/>
<path d="M997.718 109.074C1049.54 106.227 1100.34 128.774 1147.85 172.08C1195.36 215.387 1239.54 279.43 1278.1 359.489C1355.22 519.605 1409.81 743.692 1423.55 993.795C1437.29 1243.9 1407.58 1472.62 1348.46 1640.22C1318.91 1724.02 1282 1792.51 1239.52 1840.77C1197.05 1889.02 1149.02 1916.99 1097.2 1919.84C1045.38 1922.69 994.573 1900.14 947.065 1856.83C899.555 1813.53 855.371 1749.48 816.81 1669.42C739.69 1509.31 685.109 1285.22 671.368 1035.12C657.628 785.015 687.334 556.297 746.45 388.697C776.008 304.896 812.911 236.398 855.391 188.147C897.869 139.897 945.896 111.921 997.718 109.074Z" stroke="#2E2E2E"/>
<path d="M1013.53 108.345C1065.39 106.403 1115.79 129.833 1162.54 173.961C1209.28 218.091 1252.34 282.896 1289.5 363.615C1363.81 525.053 1414.48 750.058 1423.85 1000.36C1433.22 1250.67 1399.53 1478.83 1337.5 1645.38C1306.48 1728.65 1268.39 1796.49 1225.07 1843.99C1181.76 1891.49 1133.25 1918.63 1081.39 1920.57C1029.52 1922.51 979.123 1899.08 932.378 1854.95C885.631 1810.82 842.571 1746.02 805.414 1665.3C731.1 1503.86 680.438 1278.86 671.065 1028.55C661.692 778.248 695.384 550.083 757.416 383.54C788.433 300.268 826.525 232.424 869.841 184.922C913.155 137.421 961.663 110.287 1013.53 108.345Z" stroke="#2E2E2E"/>
<path d="M1029.35 107.89C1081.23 106.853 1131.22 131.159 1177.19 176.097C1223.16 221.036 1265.08 286.582 1300.82 367.938C1372.31 530.648 1419.03 756.503 1424.04 1006.93C1429.04 1257.36 1391.37 1484.91 1326.44 1650.34C1293.98 1733.06 1254.71 1800.23 1210.57 1846.97C1166.43 1893.7 1117.46 1919.99 1065.57 1921.02C1013.68 1922.06 963.695 1897.75 917.727 1852.82C871.758 1807.88 829.835 1742.33 794.092 1660.98C722.607 1498.27 675.879 1272.41 670.876 1021.98C665.873 771.55 703.542 544.009 768.472 378.574C800.937 295.855 840.208 228.687 884.345 181.947C928.482 135.209 977.456 108.926 1029.35 107.89Z" stroke="#2E2E2E"/>
<path d="M1045.17 107.712C1097.07 107.581 1146.62 132.755 1191.8 178.488C1236.98 224.223 1277.75 290.491 1312.07 372.458C1380.7 536.391 1423.48 763.028 1424.11 1013.51C1424.74 1263.99 1383.11 1490.84 1315.3 1655.11C1281.4 1737.25 1240.96 1803.72 1196.01 1849.69C1151.07 1895.65 1101.64 1921.07 1049.74 1921.2C997.845 1921.33 948.292 1896.16 903.116 1850.42C857.937 1804.69 817.165 1738.42 782.848 1656.46C714.213 1492.52 671.434 1265.89 670.802 1015.41C670.17 764.928 711.805 538.078 779.612 373.801C813.516 291.662 853.953 225.19 898.9 179.227C943.845 133.267 993.27 107.843 1045.17 107.712Z" stroke="#2E2E2E"/>
<path d="M1060.99 107.81C1112.89 108.585 1161.99 134.621 1206.37 181.135C1250.74 227.652 1290.35 294.621 1323.23 377.175C1388.99 542.28 1427.81 769.629 1424.07 1020.08C1420.33 1270.53 1374.74 1496.62 1304.08 1659.69C1268.75 1741.22 1227.16 1806.98 1181.41 1852.15C1135.67 1897.32 1085.81 1921.88 1033.92 1921.1C982.025 1920.33 932.919 1894.29 888.548 1847.78C844.175 1801.26 804.565 1734.29 771.683 1651.74C705.92 1486.63 667.103 1259.29 670.843 1008.83C674.583 758.382 720.17 532.293 790.833 369.225C826.165 287.69 867.757 221.933 913.499 176.762C959.239 131.593 1009.1 107.036 1060.99 107.81Z" stroke="#2E2E2E"/>
<path d="M1076.82 108.184C1128.69 109.865 1177.33 136.754 1220.88 184.035C1264.44 231.319 1302.87 298.969 1334.31 382.084C1397.18 548.312 1432.03 776.304 1423.92 1026.65C1415.8 1277 1366.28 1502.26 1292.78 1664.07C1256.03 1744.98 1213.3 1810 1166.77 1854.36C1120.25 1898.73 1069.97 1922.41 1018.1 1920.73C966.226 1919.05 917.582 1892.16 874.029 1844.88C830.474 1797.59 792.039 1729.94 760.603 1646.83C697.732 1480.6 662.888 1252.61 670.998 1002.26C679.108 751.913 728.635 526.654 802.133 364.844C838.883 283.938 881.615 218.917 928.139 174.552C974.661 130.188 1024.94 106.504 1076.82 108.184Z" stroke="#2E2E2E"/>
<path d="M1092.63 108.837C1144.46 111.422 1192.63 139.156 1235.35 187.19C1278.07 235.227 1315.32 303.537 1345.3 387.188C1405.26 554.488 1436.12 783.053 1423.64 1033.22C1411.17 1283.39 1357.72 1507.75 1281.4 1668.25C1243.25 1748.51 1199.39 1812.77 1152.1 1856.32C1104.81 1899.86 1054.12 1922.67 1002.29 1920.08C950.45 1917.49 902.283 1889.76 859.561 1841.73C816.839 1793.69 779.591 1725.38 749.61 1641.73C689.649 1474.43 658.79 1245.86 671.268 995.695C683.746 745.526 737.196 521.166 813.507 360.663C851.664 280.411 895.524 216.146 942.815 172.599C990.104 129.054 1040.79 106.251 1092.63 108.837Z" stroke="#2E2E2E"/>
<path d="M1108.43 109.762C1160.21 113.251 1207.88 141.821 1249.76 190.594C1291.64 239.369 1327.69 308.319 1356.2 392.481C1413.24 560.802 1440.1 789.871 1423.26 1039.78C1406.42 1289.7 1349.06 1513.09 1269.96 1672.24C1230.41 1751.81 1185.43 1815.3 1137.39 1858.01C1089.35 1900.73 1038.27 1922.64 986.488 1919.15C934.706 1915.66 887.029 1887.09 845.153 1838.32C803.275 1789.55 767.225 1720.6 738.708 1636.43C681.676 1468.11 654.811 1239.04 671.653 989.131C688.495 739.218 745.853 515.825 824.954 356.679C864.505 277.104 909.48 213.615 957.524 170.9C1005.57 128.187 1056.64 106.272 1108.43 109.762Z" stroke="#2E2E2E"/>
<path d="M1124.21 110.964C1175.92 115.357 1223.09 144.755 1264.11 194.251C1305.13 243.75 1339.97 313.318 1367.01 397.965C1421.1 567.255 1443.96 796.758 1422.76 1046.34C1401.56 1295.92 1340.31 1518.28 1258.45 1676.02C1217.51 1754.89 1171.43 1817.59 1122.65 1859.46C1073.87 1901.32 1022.42 1922.34 970.708 1917.95C918.994 1913.56 871.824 1884.16 830.805 1834.66C789.785 1785.17 754.943 1715.6 727.9 1630.95C673.814 1461.66 650.951 1232.16 672.152 982.577C693.353 732.996 754.601 510.638 836.467 352.896C877.401 274.025 923.478 211.329 972.259 169.459C1021.04 127.591 1072.49 106.571 1124.21 110.964Z" stroke="#2E2E2E"/>
<path d="M1140.96 112.441C1192.59 117.735 1239.24 147.952 1279.39 198.156C1319.54 248.363 1353.16 318.53 1378.72 403.635C1429.85 573.844 1448.7 803.711 1423.15 1052.88C1397.59 1302.06 1332.47 1523.31 1247.87 1679.6C1205.56 1757.75 1158.4 1819.63 1108.89 1860.64C1059.39 1901.65 1007.58 1921.77 955.952 1916.47C904.323 1911.18 857.672 1880.96 817.524 1830.76C777.374 1780.55 743.752 1710.39 718.19 1625.28C667.067 1455.07 648.212 1225.2 673.766 976.031C699.32 726.858 764.439 505.603 849.046 349.314C891.349 271.169 938.513 209.287 988.018 168.275C1037.52 127.264 1089.33 107.146 1140.96 112.441Z" stroke="#2E2E2E"/>
<path d="M1156.69 114.193C1208.22 120.388 1254.33 151.414 1293.6 202.312C1332.87 253.212 1365.26 323.954 1389.33 409.493C1437.48 580.568 1452.32 810.729 1422.42 1059.42C1392.52 1308.11 1323.55 1528.19 1236.23 1682.98C1192.57 1760.38 1144.33 1821.42 1094.12 1861.57C1043.91 1901.71 991.751 1920.92 940.223 1914.72C888.694 1908.53 842.579 1877.5 803.312 1826.6C764.044 1775.7 731.652 1704.96 707.579 1619.42C659.435 1448.35 644.595 1218.19 674.493 969.499C704.392 720.81 773.362 500.725 860.684 345.936C904.345 268.541 952.582 207.492 1002.8 167.35C1053.01 127.209 1105.16 107.998 1156.69 114.193Z" stroke="#2E2E2E"/>
<path d="M1172.39 116.219C1223.8 123.313 1269.37 155.139 1307.74 206.714C1346.11 258.291 1377.26 329.588 1399.84 415.534C1444.99 587.423 1455.81 817.808 1421.58 1065.94C1387.34 1314.07 1314.54 1532.91 1224.53 1686.16C1179.53 1762.78 1130.23 1822.97 1079.33 1862.23C1028.42 1901.49 975.94 1919.79 924.528 1912.7C873.115 1905.6 827.548 1873.78 789.176 1822.2C750.802 1770.62 719.649 1699.33 697.073 1613.38C651.922 1441.49 641.101 1211.11 675.335 962.979C709.569 714.85 782.37 496.002 872.38 342.761C917.385 266.139 966.68 205.942 1017.59 166.682C1068.49 127.424 1120.97 109.126 1172.39 116.219Z" stroke="#2E2E2E"/>
<path d="M1188.04 118.518C1239.32 126.508 1284.33 159.124 1321.79 211.362C1359.26 263.601 1389.17 335.431 1410.24 421.757C1452.38 594.408 1459.18 824.947 1420.62 1072.44C1382.06 1319.94 1305.45 1537.48 1212.78 1689.13C1166.45 1764.95 1116.11 1824.28 1064.53 1862.64C1012.94 1901.01 960.151 1918.39 908.87 1910.4C857.589 1902.41 812.584 1869.79 775.118 1817.55C737.651 1765.31 707.747 1693.48 686.674 1607.16C644.529 1434.51 637.731 1203.97 676.29 956.475C714.85 708.98 791.459 491.437 884.129 339.79C930.465 263.965 980.803 204.637 1032.39 166.272C1083.97 127.908 1136.76 110.529 1188.04 118.518Z" stroke="#2E2E2E"/>
<path d="M1203.66 121.091C1254.79 129.974 1299.22 163.371 1335.77 216.254C1372.32 269.139 1400.96 341.48 1420.53 428.161C1459.65 601.521 1462.43 832.144 1419.55 1078.93C1376.68 1325.71 1296.29 1541.88 1200.98 1691.89C1153.33 1766.89 1101.97 1825.33 1049.72 1862.79C997.478 1900.25 944.389 1916.71 893.255 1907.82C842.121 1898.94 797.693 1865.54 761.144 1812.66C724.594 1759.78 695.948 1687.44 676.385 1600.75C637.26 1427.39 634.486 1196.77 677.359 949.988C720.232 703.204 800.626 487.031 895.929 337.024C943.581 262.02 994.947 203.579 1047.19 166.12C1099.44 128.663 1152.52 112.207 1203.66 121.091Z" stroke="#2E2E2E"/>
<path d="M1219.23 123.936C1270.2 133.71 1314.04 167.878 1349.66 221.39C1385.28 274.905 1412.66 347.735 1430.7 434.745C1466.8 608.761 1465.55 839.397 1418.37 1085.39C1371.2 1331.39 1287.04 1546.13 1189.14 1694.45C1140.18 1768.61 1087.81 1826.15 1034.91 1862.69C982.026 1899.23 928.658 1914.75 877.687 1904.98C826.716 1895.21 782.877 1861.04 747.257 1807.52C711.635 1754.01 684.257 1681.18 666.209 1594.17C630.116 1420.16 631.367 1189.52 678.541 943.522C725.714 697.524 809.869 482.786 907.775 334.466C956.729 260.305 1009.11 202.77 1062 166.228C1114.89 129.688 1168.26 114.162 1219.23 123.936Z" stroke="#2E2E2E"/>
<path d="M1234.74 127.051C1285.53 137.714 1328.77 172.641 1363.45 226.767C1398.13 280.896 1424.24 354.192 1440.76 441.503C1473.81 616.124 1468.54 846.702 1417.08 1091.84C1365.62 1336.98 1277.73 1550.21 1177.25 1696.8C1127.01 1770.1 1073.63 1826.71 1020.11 1862.32C966.595 1897.93 912.964 1912.53 862.172 1901.86C811.379 1891.2 768.143 1856.27 733.462 1802.15C698.78 1748.02 672.676 1674.72 656.151 1587.41C623.099 1412.79 628.376 1182.21 679.835 937.076C731.295 691.939 819.184 478.703 919.664 332.114C969.905 258.818 1023.28 202.206 1076.8 166.593C1130.32 130.982 1183.95 116.389 1234.74 127.051Z" stroke="#2E2E2E"/>
<path d="M1250.2 130.437C1300.8 141.984 1343.42 177.66 1377.15 232.384C1410.88 287.109 1435.7 360.85 1450.7 448.437C1480.7 623.607 1471.4 854.058 1415.67 1098.26C1359.94 1342.46 1268.34 1554.13 1165.32 1698.94C1113.81 1771.35 1059.46 1827.02 1005.32 1861.7C951.189 1896.37 897.312 1910.02 846.713 1898.48C796.114 1886.93 753.494 1851.25 719.763 1796.53C686.031 1741.8 661.211 1668.06 646.211 1580.48C616.213 1405.31 625.512 1174.86 681.242 930.654C736.972 686.452 828.57 474.782 931.593 329.969C983.105 257.562 1037.46 201.889 1091.59 167.216C1145.73 132.544 1199.6 118.89 1250.2 130.437Z" stroke="#2E2E2E"/>
<path d="M1267.6 134.093C1317.99 146.522 1359.98 182.936 1392.75 238.24C1425.52 293.546 1449.05 367.709 1462.52 455.543C1489.46 631.211 1476.14 861.465 1416.15 1104.66C1356.17 1347.85 1260.89 1557.89 1155.36 1700.88C1102.59 1772.38 1047.27 1827.09 992.541 1860.82C937.812 1894.54 883.705 1907.25 833.315 1894.82C782.926 1882.39 740.935 1845.98 708.164 1790.67C675.392 1735.37 651.863 1661.21 638.394 1573.37C611.457 1397.7 624.777 1167.45 684.76 924.258C744.744 681.067 840.022 471.028 945.556 328.034C998.324 256.537 1053.64 201.822 1108.37 168.098C1163.1 134.376 1217.21 121.664 1267.6 134.093Z" stroke="#2E2E2E"/>
<path d="M1282.93 138.017C1333.1 151.323 1374.44 188.465 1406.24 244.333C1438.05 300.202 1460.28 374.764 1472.21 462.821C1496.08 638.931 1478.74 868.917 1414.52 1111.03C1350.3 1353.13 1251.38 1561.48 1143.36 1702.61C1089.35 1773.17 1033.09 1826.91 977.779 1859.68C922.469 1892.44 868.149 1904.2 817.984 1890.9C767.819 1877.59 726.47 1840.45 694.669 1784.58C662.867 1728.71 640.636 1654.15 628.702 1566.1C604.835 1389.98 622.172 1160 686.39 917.89C750.608 675.782 849.538 467.438 957.552 326.309C1011.56 255.743 1067.82 202.002 1123.13 169.239C1178.44 136.477 1232.77 124.711 1282.93 138.017Z" stroke="#2E2E2E"/>
<path d="M1298.19 142.207C1348.12 156.387 1388.81 194.244 1419.63 250.658C1450.45 307.074 1471.38 382.013 1481.77 470.264C1502.56 646.764 1481.22 876.413 1412.78 1117.36C1344.35 1358.31 1241.8 1564.9 1131.34 1704.12C1076.11 1773.73 1018.91 1826.49 963.039 1858.28C907.166 1890.07 852.649 1900.89 802.724 1886.71C752.798 1872.53 712.104 1834.67 681.283 1778.25C650.461 1721.84 629.534 1646.9 619.139 1558.65C598.349 1382.15 619.697 1152.5 688.131 911.55C756.565 670.6 859.115 464.014 969.576 324.791C1024.81 255.179 1082 202.427 1137.87 170.635C1193.75 138.843 1248.27 128.027 1298.19 142.207Z" stroke="#2E2E2E"/>
<path d="M1313.38 146.664C1363.05 161.713 1403.07 200.275 1432.9 257.218C1462.74 314.164 1482.35 389.456 1491.21 477.876C1508.91 654.712 1483.56 883.953 1410.93 1123.67C1338.3 1363.39 1232.16 1568.16 1119.29 1705.43C1062.85 1774.07 1004.75 1825.81 948.325 1856.62C891.906 1887.44 837.208 1897.3 787.538 1882.25C737.868 1867.2 697.84 1828.64 668.009 1771.7C638.176 1714.75 618.56 1639.46 609.707 1551.04C592.001 1374.2 617.353 1144.96 689.982 905.243C762.611 665.524 868.751 460.759 981.624 323.485C1038.06 254.848 1096.17 203.102 1152.59 172.29C1209.01 141.478 1263.71 131.616 1313.38 146.664Z" stroke="#2E2E2E"/>
<path d="M1328.48 151.384C1377.88 167.298 1417.23 206.553 1446.06 264.008C1474.9 321.465 1493.19 397.088 1500.5 485.649C1515.12 662.767 1485.77 891.531 1408.97 1129.95C1332.17 1368.36 1222.47 1571.24 1107.22 1706.52C1049.59 1774.17 990.593 1824.89 933.643 1854.71C876.695 1884.54 821.833 1893.44 772.433 1877.53C723.033 1861.62 683.685 1822.36 654.852 1764.91C626.018 1707.45 607.719 1631.83 600.41 1543.27C585.792 1366.15 615.142 1137.38 691.943 898.968C768.745 660.553 878.442 457.672 993.694 322.389C1051.32 254.746 1110.32 204.023 1167.27 174.2C1224.22 144.377 1279.08 135.471 1328.48 151.384Z" stroke="#2E2E2E"/>
<path d="M1343.5 156.368C1392.62 173.142 1431.27 213.077 1459.1 271.027C1486.93 328.978 1503.9 404.91 1509.66 493.584C1521.19 670.931 1487.85 899.147 1406.9 1136.19C1325.95 1373.22 1212.73 1574.16 1095.13 1707.41C1036.33 1774.04 976.458 1823.72 918.996 1852.55C861.537 1881.37 806.527 1889.32 757.413 1872.55C708.298 1855.77 669.641 1815.84 641.815 1757.89C613.988 1699.94 597.011 1624.01 591.249 1535.33C579.725 1357.98 613.063 1129.77 694.013 892.729C774.964 655.691 888.185 454.755 1005.78 321.504C1064.58 254.878 1124.46 205.192 1181.92 176.367C1239.38 147.543 1294.39 139.595 1343.5 156.368Z" stroke="#2E2E2E"/>
<path d="M1358.43 161.614C1407.25 179.242 1445.2 219.846 1472.01 278.273C1498.82 336.701 1514.47 412.917 1518.68 501.679C1527.11 679.199 1489.8 906.799 1404.72 1142.39C1319.65 1377.98 1202.93 1576.91 1083.03 1708.09C1023.08 1773.68 962.346 1822.31 904.389 1850.13C846.435 1877.94 791.296 1884.93 742.481 1867.3C693.667 1849.67 655.713 1809.07 628.902 1750.64C602.091 1692.21 586.442 1616 582.228 1527.24C573.801 1349.72 611.117 1122.12 696.192 886.528C781.267 650.938 897.978 452.009 1017.88 320.831C1077.83 255.241 1138.57 206.607 1196.52 178.79C1254.48 150.973 1309.62 143.987 1358.43 161.614Z" stroke="#2E2E2E"/>
<path d="M1373.27 167.12C1421.77 185.597 1459.01 226.857 1484.79 285.742C1510.58 344.63 1524.9 421.107 1527.56 509.929C1532.89 687.569 1491.61 914.484 1402.43 1148.55C1313.26 1382.62 1193.1 1579.48 1070.92 1708.55C1009.83 1773.08 948.26 1820.65 889.827 1847.45C831.396 1874.25 776.143 1880.27 727.644 1861.8C679.145 1843.32 641.905 1802.06 616.118 1743.17C590.33 1684.29 576.014 1607.81 573.35 1518.99C568.022 1341.35 609.304 1114.43 698.478 880.365C787.652 646.296 907.817 449.434 1029.99 320.368C1091.08 255.834 1152.65 208.269 1211.09 181.467C1269.52 154.666 1324.77 148.643 1373.27 167.12Z" stroke="#2E2E2E"/>
<path d="M1388.01 172.881C1436.18 192.202 1472.69 234.106 1497.45 293.432C1522.2 352.761 1535.18 429.476 1536.3 518.331C1538.52 696.037 1493.29 922.197 1400.04 1154.67C1306.8 1387.15 1183.21 1581.89 1058.8 1708.8C996.6 1772.26 934.206 1818.74 875.314 1844.52C816.425 1870.3 761.075 1875.35 712.906 1856.03C664.736 1836.71 628.222 1794.81 603.467 1735.48C578.711 1676.15 565.732 1599.44 564.618 1510.58C562.392 1332.88 607.627 1106.72 700.873 874.241C794.118 641.764 917.7 447.029 1042.11 320.115C1104.31 256.658 1166.71 210.173 1225.6 184.395C1284.49 158.618 1339.84 153.56 1388.01 172.881Z" stroke="#2E2E2E"/>
<path d="M1402.65 178.9C1450.47 199.058 1486.25 241.593 1509.96 301.342C1533.68 361.094 1545.32 438.025 1544.88 526.885C1544 704.603 1494.83 929.939 1397.54 1160.75C1300.25 1391.57 1173.29 1584.12 1046.69 1708.84C983.383 1771.2 920.187 1816.59 860.855 1841.33C801.524 1866.08 746.095 1870.17 698.27 1850.01C650.445 1829.85 614.667 1787.32 590.952 1727.57C567.235 1667.82 555.596 1590.89 556.034 1502.03C556.909 1324.31 606.085 1098.97 703.373 868.161C800.662 637.347 927.624 444.798 1054.23 320.075C1117.53 257.712 1180.73 212.324 1240.06 187.578C1299.39 162.833 1354.82 158.741 1402.65 178.9Z" stroke="#2E2E2E"/>
<path d="M1418.17 185.173C1465.64 206.163 1500.67 249.316 1523.34 309.47C1546.01 369.627 1556.3 446.749 1554.31 535.588C1550.34 713.264 1497.24 937.707 1395.93 1166.79C1294.63 1395.87 1164.33 1586.17 1035.57 1708.67C971.186 1769.92 907.208 1814.19 847.453 1837.9C787.699 1861.61 732.207 1864.73 684.741 1843.74C637.275 1822.75 602.246 1779.6 579.576 1719.44C556.906 1659.29 546.612 1582.16 548.6 1493.33C552.576 1315.65 605.678 1091.21 706.979 862.125C808.281 633.044 938.585 442.741 1067.35 320.246C1131.73 258.998 1195.71 214.72 1255.46 191.013C1315.21 167.307 1370.71 164.184 1418.17 185.173Z" stroke="#2E2E2E"/>
<path d="M1432.59 191.7C1479.68 213.515 1513.95 257.273 1535.57 317.813C1557.19 378.356 1566.13 455.646 1562.59 544.437C1555.52 722.017 1498.51 945.498 1393.22 1172.78C1287.94 1400.05 1154.33 1588.06 1023.45 1708.28C958.014 1768.4 893.273 1811.55 833.113 1834.21C772.955 1856.87 717.416 1859.03 670.324 1837.21C623.231 1815.4 588.96 1771.64 567.344 1711.1C545.727 1650.56 536.781 1573.27 540.319 1484.48C547.396 1306.9 604.406 1083.42 709.69 856.137C814.975 628.859 948.58 440.858 1079.46 320.629C1144.9 260.514 1209.64 217.359 1269.8 194.699C1329.96 172.039 1385.5 169.885 1432.59 191.7Z" stroke="#2E2E2E"/>
</svg>
